<svg xmlns="http://www.w3.org/2000/svg" version="1.1" xmlns:xlink="http://www.w3.org/1999/xlink" xmlns:svgjs="http://svgjs.com/svgjs" width="1440" height="560" preserveAspectRatio="none" viewBox="0 0 1440 560"><g mask="url(&quot;#SvgjsMask1818&quot;)" fill="none"><rect width="1440" height="560" x="0" y="0" fill="url(#SvgjsLinearGradient1819)"></rect><path d="M720 842.35C871.16 853.44 1027.79 801.92 1130.04 690.04 1228.94 581.85 1235.02 426.6 1234.1 280 1233.22 134.64 1221.22-16.06 1125.03-125.03 1023.65-239.89 873.18-305.67 720-302.36 569.67-299.14 441.7-210.87 331.99-108.01 217.5-0.69 91.5 123.28 98.68 280 105.72 433.59 251.95 530.88 365.94 634.06 471.51 729.6 578 831.95 720 842.35" fill="rgba(72, 74, 91, 1)"></path><path d="M720 695.65C831.72 703.84 947.49 665.76 1023.08 583.08 1096.18 503.11 1100.66 388.36 1099.98 280 1099.34 172.56 1090.46 61.18 1019.37-19.37 944.43-104.27 833.22-152.89 720-150.44 608.89-148.06 514.3-82.81 433.21-6.79 348.58 72.53 255.46 164.16 260.76 280 265.96 393.53 374.05 465.44 458.3 541.7 536.33 612.32 615.04 687.97 720 695.65" fill="rgba(28, 193, 236, 1)"></path><path d="M720 548.95C792.29 554.25 867.2 529.61 916.11 476.11 963.41 424.36 966.31 350.11 965.87 280 965.45 210.48 959.71 138.41 913.71 86.29 865.22 31.36 793.26-0.1 720 1.48 648.1 3.02 586.9 45.24 534.43 94.43 479.67 145.76 419.41 205.05 422.85 280 426.21 353.46 496.15 399.99 550.67 449.33 601.16 495.03 652.09 543.98 720 548.95" fill="rgba(93, 170, 198, 1)"></path><path d="M720 402.25C752.86 404.66 786.91 393.46 809.14 369.14 830.64 345.62 831.96 311.87 831.76 280 831.57 248.4 828.96 215.64 808.05 191.95 786.01 166.98 753.3 152.68 720 153.4 687.32 154.1 659.5 173.29 635.65 195.65 610.76 218.98 583.37 245.93 584.93 280 586.46 313.39 618.25 334.54 643.03 356.97 665.98 377.74 689.13 399.99 720 402.25" fill="#488fdb"></path></g><defs><mask id="SvgjsMask1818"><rect width="1440" height="560" fill="#ffffff"></rect></mask><linearGradient x1="15.28%" y1="139.29%" x2="84.72%" y2="-39.29%" gradientUnits="userSpaceOnUse" id="SvgjsLinearGradient1819"><stop stop-color="rgba(14, 42, 71, 1)" offset="0"></stop><stop stop-color="rgba(115, 191, 227, 0.46)" offset="0"></stop></linearGradient></defs></svg>