<svg xmlns="http://www.w3.org/2000/svg" version="1.1" xmlns:xlink="http://www.w3.org/1999/xlink" xmlns:svgjs="http://svgjs.com/svgjs" width="1440" height="560" preserveAspectRatio="none" viewBox="0 0 1440 560"><g mask="url(&quot;#SvgjsMask1053&quot;)" fill="none"><rect width="1440" height="560" x="0" y="0" fill="rgba(166, 188, 201, 1)"></rect><path d="M0,332.302C79.662,337.883,168.27,409.288,232.801,362.246C298.512,314.344,257.328,206.009,280.266,127.993C298.849,64.788,348.206,14.66,354.285,-50.939C361.42,-127.93,372.381,-220.631,317.631,-275.229C262.486,-330.221,169.594,-308.783,91.813,-312.685C30.851,-315.743,-27.227,-308.939,-86.772,-295.518C-150.357,-281.187,-218.851,-275.19,-267.418,-231.719C-318.657,-185.856,-352.411,-120.077,-359.227,-51.649C-365.916,15.513,-328.47,75.954,-304.341,138.988C-278.462,206.594,-273.846,292.219,-212.741,331.032C-151.644,369.841,-72.204,327.244,0,332.302" fill="#5a7f95"></path><path d="M1440 1185.78C1557.08 1187.533 1610.9 1035.646 1690.475 949.7470000000001 1749.926 885.572 1805.688 822.951 1847.3690000000001 746.039 1891.85 663.962 1946.155 581.205 1940.709 488.009 1935.087 391.797 1882.154 304.36199999999997 1817.391 232.98899999999998 1753.564 162.647 1668.51 118.695 1578.385 88.70400000000001 1485.648 57.843999999999994 1388.109 37.12199999999996 1292.715 58.39299999999997 1193.687 80.47500000000002 1093.368 126.20100000000002 1035.738 209.70499999999998 979.846 290.689 1017.442 400.653 991.075 495.454 959.135 610.2909999999999 815.969 713.948 865.314 822.45 914.63 930.89 1093.609 878.658 1194.3 942.317 1293.769 1005.204 1322.3319999999999 1184.018 1440 1185.78" fill="#f6f8fa"></path></g><defs><mask id="SvgjsMask1053"><rect width="1440" height="560" fill="#ffffff"></rect></mask></defs></svg>