<svg xmlns="http://www.w3.org/2000/svg" version="1.1" xmlns:xlink="http://www.w3.org/1999/xlink" xmlns:svgjs="http://svgjs.com/svgjs" width="1440" height="560" preserveAspectRatio="none" viewBox="0 0 1440 560"><g mask="url(&quot;#SvgjsMask1184&quot;)" fill="none"><path d="M 0,26 C 72,74.4 216,260 360,268 C 504,276 576,82.6 720,66 C 864,49.4 936,188 1080,185 C 1224,182 1368,77.8 1440,51L1440 560L0 560z" fill="rgba(13, 122, 235, 0.58)"></path><path d="M 0,487 C 57.6,453.4 172.8,328.2 288,319 C 403.2,309.8 460.8,445.6 576,441 C 691.2,436.4 748.8,276.4 864,296 C 979.2,315.6 1036.8,535.8 1152,539 C 1267.2,542.2 1382.4,357.4 1440,312L1440 560L0 560z" fill="rgba(70, 144, 223, 1)"></path></g><defs><mask id="SvgjsMask1184"><rect width="1440" height="560" fill="#ffffff"></rect></mask></defs></svg>